<svg xmlns="http://www.w3.org/2000/svg" xml:space="preserve" width="800" height="800" viewBox="0 0 378.6 378.6"><path d="M377.4 161c-5-49-31-92.5-73.2-122.9A198.5 198.5 0 0 0 147.6 4.8a189.2 189.2 0 0 0-121 88.7A189.1 189.1 0 0 0 7.4 242.4a188.1 188.1 0 0 0 181.3 135.8c34.1 0 68.1-9.2 98-27.1L265.6 316a149.5 149.5 0 0 1-134.7 9.6A149.2 149.2 0 0 1 46.7 231c-11.3-38.6-5.8-81.1 15.1-116.6a148 148 0 0 1 94.7-69.5c41.6-9.3 87.9.6 123.8 26.5a132.3 132.3 0 0 1 56.4 94c2.5 24 .3 42.8-6.6 56.2-14.4 28.1-35.5 28.3-43.8 27h-.7c-2.4-3.7-2-17.5-2-23.5l.1-6.7v-112h-31.3a112 112 0 0 0-70-24.5c-29 0-56.4 10.6-76.8 29.8a109.5 109.5 0 0 0-24.6 122c8.6 19.7 23 36 41.9 47.1 17.6 10.4 38.2 16 59.5 16a111.4 111.4 0 0 0 70.4-23.7 40.2 40.2 0 0 0 27.5 16 77.1 77.1 0 0 0 46.8-7.6 91.6 91.6 0 0 0 39.4-41.3c10.7-20.8 14.3-46.6 11-79.1zm-135 63.5-3 3.8-1.7 2.1a65.9 65.9 0 0 1-55.3 25.4c-29 0-53.5-14.8-63.9-38.6a67.9 67.9 0 0 1 15-75.7 71.8 71.8 0 0 1 49-18.8c13 0 25.5 3.4 36.2 9.8a65.4 65.4 0 0 1 19.6 17.8c1 1.2 2.9 3.5 4 5.1v69.1z"/></svg>